<svg xmlns="http://www.w3.org/2000/svg" viewBox="0 0 45.721 45.721"><g xmlns="http://www.w3.org/2000/svg" fill="#e3e3e3"><path d="M12.268 19.814l-5.133-7.015c-2.103 2.032-2.361 5.907-.979 10.196 2.01-.711 4.094-1.779 6.112-3.181zm13.467 18.4l-5.136-7.015c-1.947 1.5-3.597 3.167-4.883 4.868 3.671 2.615 7.446 3.537 10.019 2.147zm-15.032-6.943a26.409 26.409 0 0 0 3.912 3.96c1.361-1.823 3.097-3.591 5.15-5.171l-2.583-3.531-6.479 4.742zm-4.081-6.973a26.65 26.65 0 0 0 3.226 5.851l6.502-4.759-3.247-4.436c-2.126 1.479-4.334 2.598-6.481 3.344zm-2.519-8.32A15.846 15.846 0 0 0 1.26 24.03a16.576 16.576 0 0 0 3.574-.615c-.85-2.695-1.107-5.271-.731-7.437zm4.605 15.004c-1.481-2.045-2.622-4.178-3.42-6.267-1.407.394-2.774.619-4.059.674a15.698 15.698 0 0 0 2.945 8.91l4.534-3.317zm13.079 9.161c-2.179-.298-4.557-1.319-6.868-2.945a16.398 16.398 0 0 0-1.663 3.216c2.786.678 5.741.612 8.531-.271zm3.276-21.132l4.601-3.366a15.694 15.694 0 0 0-7.601-5.501c-.449 1.23-1.094 2.487-1.914 3.732 1.74 1.387 3.42 3.113 4.914 5.135zM11.947 40.036c.44-1.208 1.069-2.442 1.87-3.666a27.028 27.028 0 0 1-4.254-4.266l-4.515 3.304a15.702 15.702 0 0 0 6.899 4.628zm18.51-23.221l-4.581 3.353a27.192 27.192 0 0 1 2.77 5.316c1.437-.406 2.828-.64 4.139-.695a15.71 15.71 0 0 0-2.328-7.974zm-3.138 9.09a26.336 26.336 0 0 0-2.584-4.904l-6.413 4.693 2.584 3.53c2.103-1.462 4.286-2.572 6.413-3.319zm.465 1.304c-1.988.711-4.049 1.77-6.043 3.155l5.127 7.006c2.05-2.05 2.293-5.903.916-10.161zm4.961-1.059c-1.146.06-2.371.271-3.643.635.864 2.729 1.118 5.339.727 7.522a15.825 15.825 0 0 0 2.916-8.157zM20.755 9.762a15.85 15.85 0 0 0-8.66.314c2.2.288 4.61 1.321 6.95 2.971.732-1.103 1.307-2.21 1.71-3.285zm-2.513 4.415c-3.643-2.601-7.387-3.539-9.961-2.203l5.127 7.005c1.925-1.48 3.554-3.123 4.834-4.802zm1.099.84c-1.354 1.798-3.071 3.542-5.1 5.102l3.246 4.436 6.436-4.71a26.523 26.523 0 0 0-4.582-4.828z" data-original="#000000"/><path d="M40.749 19.552l-4.695 5.268 2.975.169c-.553 3.308-5.856 18.706-20.791 18.733h-.223c-11.327 0-14.801-4.216-15.863-6.74l-1.844.774c1.255 2.983 5.224 7.965 17.707 7.965h.23c16.723-.032 22.26-17.046 22.787-20.621l2.817.16-3.1-5.708zm4.5-12.917c-.583-1.245-1.514-1.064-1.999-.923l-4.126 1.209S35.747.681 34.925.207c-.822-.475-1.757.017-1.757.017l2.729 7.821-4.033 1.812-1.982-1.773-1.649.176s2.002 2.311 2.199 3.186c.197.874-.148 3.299-.148 3.299l1.521-.06.759-3.048 4.043-.933L39 18.608s1.352.076 1.578-.854c.226-.93-.916-7.526-.916-7.526S44 8.778 44.357 8.53c.357-.248 1.474-.65.892-1.895z" data-original="#000000"/></g></svg>