<svg xmlns="http://www.w3.org/2000/svg" viewBox="0 0 512 512"><path xmlns="http://www.w3.org/2000/svg" fill="#e3e3e3" d="M504.485 136.266c-13.536 0-24.548-11.011-24.548-24.548a7.514 7.514 0 0 0-7.515-7.515 7.514 7.514 0 0 0-7.515 7.515c0 13.536-11.011 24.548-24.548 24.548-4.151 0-7.515 3.364-7.515 7.515s3.364 7.515 7.515 7.515c13.536 0 24.548 11.012 24.548 24.548a7.514 7.514 0 0 0 7.515 7.515 7.514 7.514 0 0 0 7.515-7.515c0-13.536 11.011-24.548 24.548-24.548 4.151 0 7.515-3.364 7.515-7.515s-3.364-7.515-7.515-7.515zm-32.062 16.399a39.977 39.977 0 0 0-8.884-8.884 39.956 39.956 0 0 0 8.884-8.884 39.977 39.977 0 0 0 8.884 8.884 39.977 39.977 0 0 0-8.884 8.884zM71.64 136.266c-13.535 0-24.548-11.011-24.548-24.548a7.515 7.515 0 1 0-15.03 0c0 13.536-11.013 24.548-24.548 24.548a7.515 7.515 0 1 0 0 15.03c13.535 0 24.548 11.012 24.548 24.548a7.515 7.515 0 1 0 15.03 0c0-13.536 11.013-24.548 24.548-24.548a7.515 7.515 0 1 0 0-15.03zm-32.063 16.399a39.956 39.956 0 0 0-8.884-8.884 39.935 39.935 0 0 0 8.884-8.884 39.956 39.956 0 0 0 8.884 8.884 39.998 39.998 0 0 0-8.884 8.884zM296.078 40.078c-17.956 0-32.564-14.607-32.564-32.564a7.515 7.515 0 0 0-15.029.001c0 17.956-14.609 32.564-32.564 32.564a7.515 7.515 0 1 0 0 15.03c17.955 0 32.564 14.608 32.564 32.564a7.515 7.515 0 1 0 15.03 0c0-17.956 14.608-32.564 32.564-32.564a7.516 7.516 0 0 0-.001-15.031zM256 62.027a48.01 48.01 0 0 0-14.435-14.434A48.01 48.01 0 0 0 256 33.159a48.017 48.017 0 0 0 14.434 14.434A48.017 48.017 0 0 0 256 62.027zm156.456 191.472l-29.232-82.824a15.554 15.554 0 0 0-14.645-10.362H141.417a15.553 15.553 0 0 0-14.645 10.361L97.54 253.499c-1.698 4.811 1.992 10.016 7.086 10.016H405.37a7.514 7.514 0 0 0 7.086-10.016zm-297.209-5.014l25.697-72.809a.515.515 0 0 1 .472-.334h227.163c.205 0 .404.141.473.335l25.697 72.808H115.247zM399.28 352.689c-26.688 0-47.593 13.864-47.593 31.562s20.905 31.562 47.593 31.562 47.593-13.864 47.593-31.562-20.905-31.562-47.593-31.562zm0 48.094c-18.638 0-32.564-8.728-32.564-16.532s13.925-16.532 32.564-16.532c18.638 0 32.564 8.728 32.564 16.532s-13.926 16.532-32.564 16.532zm-288.564-48.094c-26.688 0-47.593 13.864-47.593 31.562s20.905 31.562 47.593 31.562 47.593-13.864 47.593-31.562-20.905-31.562-47.593-31.562zm0 48.094c-18.637 0-32.564-8.728-32.564-16.532s13.926-16.532 32.564-16.532 32.564 8.728 32.564 16.532-13.926 16.532-32.564 16.532z" data-original="#000000"/><path xmlns="http://www.w3.org/2000/svg" fill="#e3e3e3" d="M495.468 240.47H455.39a7.514 7.514 0 0 0-7.29 5.692l-5.279 21.115L405.9 162.671c-5.574-15.793-20.572-26.405-37.321-26.405H141.417c-16.749 0-31.747 10.612-37.321 26.406l-36.92 104.606-5.279-21.116a7.515 7.515 0 0 0-7.29-5.692H14.528a7.515 7.515 0 0 0-7.515 7.515v32.063a7.515 7.515 0 0 0 7.515 7.515h41.507l-25.619 35.866a39.36 39.36 0 0 0-7.371 23.004v93.928c0 13.015 6.317 24.581 16.044 31.798-.003.088-.013.175-.013.264v24.047c0 8.564 6.967 15.53 15.53 15.53H102.7c8.564 0 15.53-6.967 15.53-15.53v-16.532h273.534v16.532c0 8.564 6.967 15.53 15.53 15.53h48.094c8.564 0 15.53-6.967 15.53-15.53v-24.047c0-.089-.01-.176-.013-.264 9.727-7.217 16.044-18.783 16.044-31.798v-93.928c0-8.298-2.55-16.254-7.372-23.004l-25.619-35.866h41.508a7.514 7.514 0 0 0 7.515-7.515v-32.063a7.511 7.511 0 0 0-7.513-7.515zM22.043 272.532v-17.033h26.696l4.258 17.033H22.043zm81.159 223.938a.501.501 0 0 1-.501.501H54.607a.502.502 0 0 1-.501-.501v-16.532h49.096v16.532zm352.688 0a.502.502 0 0 1-.501.501h-48.094a.502.502 0 0 1-.501-.501v-16.532h49.096v16.532zm-8.516-31.562H62.622c-10.915 0-20.185-7.162-23.367-17.033H470.74c-3.182 9.871-12.451 17.033-23.366 17.033zm-127.75-81.158v17.033H190.372V383.75h129.252zm-128.071-15.03c3.182-9.871 12.451-17.033 23.367-17.033h80.157c10.915 0 20.185 7.162 23.367 17.033H191.553zm128.071 47.092v17.033H190.372v-17.033h129.252zm147.726-83.648a24.41 24.41 0 0 1 4.572 14.268v86.414H334.654v-56.611c0-21.823-17.755-39.577-39.577-39.577H214.92c-21.823 0-39.577 17.755-39.577 39.577v56.611H38.074v-86.414a24.41 24.41 0 0 1 4.572-14.268l31.859-44.602h276.68a7.514 7.514 0 0 0 7.515-7.515 7.514 7.514 0 0 0-7.515-7.515H81.259l37.009-104.859c3.458-9.795 12.76-16.378 23.149-16.378H368.58c10.388 0 19.69 6.582 23.149 16.378l37.008 104.859h-45.489a7.514 7.514 0 0 0-7.515 7.515 7.514 7.514 0 0 0 7.515 7.515h52.243l31.859 44.602zm20.603-59.632h-30.955l4.258-17.033h26.697v17.033z" data-original="#000000"/><path xmlns="http://www.w3.org/2000/svg" fill="#e3e3e3" d="M134.763 328.642H86.669a7.515 7.515 0 1 0 0 15.03h48.094a7.515 7.515 0 1 0 0-15.03zm288.564 0h-48.094c-4.151 0-7.515 3.364-7.515 7.515s3.364 7.515 7.515 7.515h48.094c4.151 0 7.515-3.364 7.515-7.515s-3.364-7.515-7.515-7.515z" data-original="#000000"/></svg>